<svg width="83" height="136" viewBox="0 0 83 136" fill="none" xmlns="http://www.w3.org/2000/svg">
<g clip-path="url(#clip0_67_777)">
<path d="M41.5 68C41.5 61.9884 43.6862 56.2231 47.5775 51.9722C51.4689 47.7214 56.7468 45.3333 62.25 45.3333C67.7532 45.3333 73.0311 47.7214 76.9225 51.9722C80.8138 56.2231 83 61.9884 83 68C83 74.0116 80.8138 79.7769 76.9225 84.0277C73.0311 88.2786 67.7532 90.6666 62.25 90.6666C56.7468 90.6666 51.4689 88.2786 47.5775 84.0277C43.6862 79.7769 41.5 74.0116 41.5 68V68Z" fill="#1ABCFE"/>
<path d="M0 113.333C0 107.322 2.18615 101.556 6.07753 97.3056C9.96891 93.0548 15.2468 90.6667 20.75 90.6667H41.5V113.333C41.5 119.345 39.3138 125.11 35.4225 129.361C31.5311 133.612 26.2532 136 20.75 136C15.2468 136 9.96891 133.612 6.07753 129.361C2.18615 125.11 0 119.345 0 113.333H0Z" fill="#0ACF83"/>
<path d="M41.5 0V45.3333H62.25C67.7532 45.3333 73.0311 42.9452 76.9225 38.6944C80.8138 34.4436 83 28.6782 83 22.6667C83 16.6551 80.8138 10.8897 76.9225 6.63891C73.0311 2.38809 67.7532 0 62.25 0L41.5 0Z" fill="#FF7262"/>
<path d="M0 22.6667C0 28.6782 2.18615 34.4436 6.07753 38.6944C9.96891 42.9452 15.2468 45.3333 20.75 45.3333H41.5V0H20.75C15.2468 0 9.96891 2.38809 6.07753 6.63891C2.18615 10.8897 0 16.6551 0 22.6667H0Z" fill="#F24E1E"/>
<path d="M0 68C0 74.0116 2.18615 79.7769 6.07753 84.0277C9.96891 88.2786 15.2468 90.6666 20.75 90.6666H41.5V45.3333H20.75C15.2468 45.3333 9.96891 47.7214 6.07753 51.9722C2.18615 56.2231 0 61.9884 0 68H0Z" fill="#A259FF"/>
</g>
<defs>
<clipPath id="clip0_67_777">
<rect width="83" height="136" fill="white"/>
</clipPath>
</defs>
</svg>
