<svg width="129" height="136" viewBox="0 0 129 136" fill="none" xmlns="http://www.w3.org/2000/svg">
<g clip-path="url(#clip0_67_757)">
<path d="M106.156 0H22.8438C10.2275 0 0 11.059 0 24.7009V111.299C0 124.941 10.2275 136 22.8438 136H106.156C118.773 136 129 124.941 129 111.299V24.7009C129 11.059 118.773 0 106.156 0Z" fill="#330000"/>
<path d="M62.5111 81.6161H42.521L38.4538 95.2778C38.3984 95.5269 38.2643 95.7473 38.0747 95.901C37.8852 96.0547 37.652 96.1322 37.4153 96.1199H27.2904C26.713 96.1199 26.5111 95.7768 26.6847 95.0906L43.992 41.1927C44.1653 40.6314 44.3384 39.992 44.5114 39.2745C44.7378 38.026 44.8537 36.7571 44.8576 35.4849C44.8458 35.3959 44.8534 35.3052 44.8797 35.22C44.906 35.1347 44.9503 35.0572 45.0091 34.9937C45.0678 34.9301 45.1395 34.8822 45.2183 34.8538C45.2972 34.8253 45.3811 34.8171 45.4633 34.8298H59.2226C59.6257 34.8298 59.8565 34.9858 59.915 35.2978L79.5592 95.1841C79.7321 95.8085 79.559 96.1204 79.0398 96.1199H67.7898C67.5966 96.1431 67.4022 96.0893 67.243 95.9688C67.0837 95.8483 66.9705 95.6692 66.9245 95.4649L62.5111 81.6161ZM45.6363 69.826H59.3092C58.9631 68.5789 58.5592 67.1753 58.0978 65.6152C57.6353 64.0566 57.145 62.3879 56.6267 60.609C56.1073 58.8313 55.588 57.0534 55.0688 55.2754C54.5497 53.4976 54.0738 51.7821 53.6411 50.1289C53.2083 48.4768 52.8189 46.9641 52.4729 45.5907H52.3863C51.8991 48.1179 51.2926 50.6164 50.5691 53.0765C49.7605 55.8837 48.9383 58.7532 48.1026 61.6851C47.2656 64.6181 46.4435 67.3317 45.6363 69.826H45.6363Z" fill="#FF9A00"/>
<path d="M91.2405 44.7486C90.3579 44.7869 89.4777 44.6234 88.6575 44.2686C87.8374 43.9139 87.0957 43.376 86.481 42.69C85.8679 41.9743 85.3918 41.1347 85.0799 40.2193C84.768 39.304 84.6265 38.331 84.6635 37.3564C84.632 36.3913 84.7892 35.43 85.1247 34.5351C85.4602 33.6402 85.9666 32.832 86.6106 32.1631C87.2484 31.5011 88.0013 30.9824 88.8257 30.6371C89.6501 30.2918 90.5297 30.1267 91.4135 30.1513C93.4905 30.1513 95.1203 30.8219 96.3029 32.1631C96.8999 32.8601 97.3638 33.6775 97.6682 34.5687C97.9726 35.4598 98.1115 36.4071 98.0768 37.3564C98.113 38.3348 97.967 39.3112 97.6474 40.2274C97.3278 41.1437 96.8411 41.9811 96.2163 42.69C95.5633 43.386 94.7841 43.9283 93.9277 44.2826C93.0714 44.6369 92.1564 44.7955 91.2405 44.7486ZM85.2692 95.1842V50.4564C85.2692 49.8951 85.4991 49.6143 85.9616 49.6143H96.6058C97.0669 49.6143 97.2977 49.895 97.2981 50.4564V95.1842C97.2981 95.8085 97.0674 96.1204 96.6058 96.12H86.0482C85.529 96.12 85.2694 95.808 85.2692 95.1842V95.1842Z" fill="#FF9A00"/>
</g>
<defs>
<clipPath id="clip0_67_757">
<rect width="129" height="136" fill="white"/>
</clipPath>
</defs>
</svg>
