<svg width="129" height="136" viewBox="0 0 129 136" fill="none" xmlns="http://www.w3.org/2000/svg">
<g clip-path="url(#clip0_67_767)">
<path d="M106.156 0H22.8438C10.2275 0 0 11.059 0 24.7009V111.299C0 124.941 10.2275 136 22.8438 136H106.156C118.773 136 129 124.941 129 111.299V24.7009C129 11.059 118.773 0 106.156 0Z" fill="#001E36"/>
<path d="M29.0474 95.3716V35.5787C29.0474 35.1429 29.2206 34.9237 29.5668 34.9237C30.4887 34.9237 31.3306 34.9091 32.6003 34.8769C33.8688 34.8462 35.2389 34.815 36.7108 34.7834C38.1822 34.7526 39.7399 34.7214 41.3841 34.6897C43.0281 34.6591 44.6578 34.6434 46.2733 34.6429C50.657 34.6429 54.3492 35.2355 57.35 36.4208C60.0568 37.4109 62.5254 39.0412 64.5761 41.193C66.3143 43.0581 67.6576 45.3089 68.5134 47.7899C69.323 50.2044 69.7332 52.7542 69.7251 55.3225C69.7251 60.314 68.6578 64.4312 66.5232 67.6741C64.3745 70.9303 61.3542 73.396 57.8694 74.7388C54.2347 76.2053 50.1959 76.7026 45.7542 76.7026C44.4844 76.7026 43.5902 76.687 43.0714 76.6558C42.5523 76.625 41.7735 76.6094 40.735 76.609V95.2781C40.7501 95.3925 40.7404 95.5091 40.7066 95.6187C40.6728 95.7284 40.6158 95.828 40.5403 95.9097C40.4647 95.9914 40.3725 96.053 40.2712 96.0895C40.1698 96.126 40.0619 96.1366 39.9561 96.1202H29.6531C29.2489 96.1202 29.0474 95.8716 29.0474 95.3716ZM40.735 46.1524V65.6544C41.4841 65.7172 42.1763 65.7484 42.8118 65.7479H45.6675C47.7687 65.7403 49.8561 65.38 51.8551 64.6798C53.5695 64.1292 55.1014 63.0573 56.2685 61.5919C57.3933 60.1577 57.9558 58.1615 57.956 55.6033C58.0016 53.7932 57.566 52.0071 56.701 50.4567C55.7916 48.9576 54.4772 47.7977 52.9366 47.1349C50.9251 46.2895 48.7765 45.8917 46.6194 45.9653C45.2347 45.9653 44.0088 45.9809 42.9417 46.012C41.8735 46.0442 41.138 46.091 40.735 46.1523V46.1524Z" fill="#31A8FF"/>
<path d="M103.184 62.1084C101.558 61.2048 99.826 60.5438 98.0354 60.1433C96.0624 59.6539 94.0453 59.4028 92.021 59.3947C90.9261 59.3626 89.8327 59.5045 88.7758 59.8158C88.1032 59.9778 87.5053 60.3922 87.0883 60.9855C86.8063 61.46 86.6561 62.0122 86.6557 62.5762C86.6715 63.1235 86.854 63.6498 87.1749 64.0734C87.6804 64.7127 88.298 65.2375 88.9921 65.6173C90.226 66.3358 91.4973 66.9763 92.7997 67.5356C95.7041 68.5868 98.4793 70.0165 101.064 71.7931C102.825 72.9948 104.282 74.6507 105.304 76.6121C106.164 78.4693 106.595 80.5243 106.559 82.6008C106.611 85.3428 105.886 88.0364 104.483 90.3206C102.979 92.6392 100.892 94.4418 98.4679 95.5137C95.8421 96.761 92.597 97.3848 88.7326 97.3853C86.2776 97.4121 83.8268 97.1612 81.4201 96.6367C79.5239 96.2607 77.6781 95.6321 75.9249 94.7652C75.7357 94.6596 75.5783 94.4979 75.471 94.299C75.3637 94.1001 75.3111 93.8723 75.3192 93.6423V83.5365C75.3088 83.4375 75.3234 83.3374 75.3615 83.2467C75.3997 83.1561 75.4599 83.0784 75.5357 83.0218C75.61 82.9764 75.6954 82.9565 75.7804 82.9649C75.8654 82.9733 75.946 83.0095 76.0115 83.0687C78.0819 84.3887 80.3301 85.3516 82.6749 85.9226C84.7417 86.4827 86.8616 86.781 88.9921 86.8115C91.0109 86.8115 92.4964 86.5308 93.4488 85.9694C93.8788 85.7565 94.2426 85.4134 94.4961 84.9816C94.7495 84.5498 94.8818 84.0479 94.8768 83.5365C94.8768 82.7265 94.4441 81.9468 93.5787 81.1972C92.7134 80.4486 90.9538 79.544 88.2998 78.4835C85.5826 77.4609 83.0062 76.0444 80.6412 74.2728C78.9496 73.0007 77.5568 71.3183 76.574 69.3602C75.7229 67.5163 75.2927 65.4789 75.3192 63.4184C75.3144 60.9425 75.9434 58.5136 77.1364 56.4004C78.4968 54.0734 80.4502 52.2212 82.7615 51.0668C85.2994 49.6954 88.4725 49.0092 92.2807 49.0082C94.5109 48.9888 96.739 49.1609 98.9441 49.5228C100.541 49.7418 102.102 50.1984 103.583 50.8796C103.701 50.9161 103.809 50.9815 103.899 51.0709C103.989 51.1602 104.058 51.2709 104.102 51.3943C104.161 51.6228 104.19 51.859 104.189 52.0961V61.5469C104.195 61.6569 104.174 61.7666 104.128 61.8652C104.083 61.9637 104.014 62.0476 103.929 62.1084C103.814 62.1706 103.686 62.203 103.557 62.203C103.428 62.203 103.3 62.1706 103.184 62.1084V62.1084Z" fill="#31A8FF"/>
</g>
<defs>
<clipPath id="clip0_67_767">
<rect width="129" height="136" fill="white"/>
</clipPath>
</defs>
</svg>
